<svg width="15" height="21" viewBox="0 0 15 21" fill="none" xmlns="http://www.w3.org/2000/svg">
<path d="M3.48214 0C1.5686 0 0 1.61815 0 3.59213V20.1712C4.34034e-05 20.3238 0.0409066 20.4734 0.11809 20.6036C0.195273 20.7337 0.305782 20.8394 0.437445 20.9089C0.569109 20.9785 0.71682 21.0092 0.86431 20.9976C1.0118 20.9861 1.15335 20.9328 1.27337 20.8437L7.5 16.2186L13.7266 20.8437C13.8467 20.9328 13.9882 20.9861 14.1357 20.9976C14.2832 21.0092 14.4309 20.9785 14.5626 20.9089C14.6942 20.8394 14.8047 20.7337 14.8819 20.6036C14.9591 20.4734 15 20.3238 15 20.1712V3.59213C15 1.61815 13.4314 0 11.5179 0H3.48214ZM3.48214 1.65791H11.5179C12.5625 1.65791 13.3929 2.51446 13.3929 3.59213V18.5532L7.9698 14.525C7.83298 14.4233 7.66863 14.3686 7.5 14.3686C7.33137 14.3686 7.16702 14.4233 7.0302 14.525L1.60714 18.5532V3.59213C1.60714 2.51446 2.43747 1.65791 3.48214 1.65791Z" fill="#9C9D9F"/>
</svg>
