<svg width="19" height="19" viewBox="0 0 19 19" fill="none" xmlns="http://www.w3.org/2000/svg">
<path d="M1.74991 0.78125C1.50191 0.78125 1.25436 0.875673 1.06497 1.06506C0.686676 1.44336 0.686676 2.05664 1.06497 2.43494L8.13004 9.5L1.06497 16.5651C0.686676 16.9434 0.686676 17.5566 1.06497 17.9349C1.25436 18.1243 1.50191 18.2188 1.74991 18.2188C1.99791 18.2188 2.24546 18.1243 2.43485 17.9349L9.49991 10.8699L16.565 17.9349C16.9433 18.3132 17.5565 18.3132 17.9348 17.9349C18.3131 17.5566 18.3131 16.9434 17.9348 16.5651L10.8698 9.5L17.9348 2.43494C18.3131 2.05664 18.3131 1.44336 17.9348 1.06506C17.5565 0.686767 16.9433 0.686767 16.565 1.06506L9.49991 8.13013L2.43485 1.06506C2.24546 0.875673 1.99791 0.78125 1.74991 0.78125Z" fill="#653FC0"/>
</svg>
