<svg width="26" height="27" viewBox="0 0 26 27" fill="none" xmlns="http://www.w3.org/2000/svg">
<path d="M10.8268 0C4.86015 0 0 5.04707 0 11.2432C0 17.4393 4.86015 22.4864 10.8268 22.4864C13.4214 22.4864 15.8043 21.5296 17.6718 19.9413L24.1361 26.6543C24.2359 26.7622 24.3554 26.8484 24.4876 26.9077C24.6199 26.9671 24.7622 26.9984 24.9062 26.9999C25.0502 27.0015 25.1931 26.9731 25.3265 26.9166C25.4598 26.86 25.581 26.7764 25.6829 26.6707C25.7847 26.5649 25.8652 26.4391 25.9197 26.3006C25.9741 26.1621 26.0014 26.0137 25.9999 25.8641C25.9985 25.7145 25.9683 25.5668 25.9111 25.4295C25.854 25.2921 25.771 25.1681 25.6671 25.0645L19.2028 18.3515C20.7322 16.4121 21.6536 13.9377 21.6536 11.2432C21.6536 5.04707 16.7934 0 10.8268 0ZM10.8268 2.24864C15.6232 2.24864 19.4882 6.26233 19.4882 11.2432C19.4882 16.2241 15.6232 20.2378 10.8268 20.2378C6.03039 20.2378 2.16536 16.2241 2.16536 11.2432C2.16536 6.26233 6.03039 2.24864 10.8268 2.24864Z" fill="#8E6BE1"/>
</svg>
