<svg width="29" height="22" viewBox="0 0 29 22" fill="none" xmlns="http://www.w3.org/2000/svg">
<path d="M1.60766 0.374984C1.46687 0.372993 1.32708 0.399004 1.19643 0.451506C1.06577 0.504008 0.946859 0.581954 0.846591 0.680814C0.746323 0.779674 0.666704 0.897476 0.612359 1.02737C0.558015 1.15727 0.530029 1.29668 0.530029 1.43748C0.530029 1.57829 0.558015 1.7177 0.612359 1.84759C0.666704 1.97749 0.746323 2.09529 0.846591 2.19415C0.946859 2.29301 1.06577 2.37096 1.19643 2.42346C1.32708 2.47596 1.46687 2.50198 1.60766 2.49998H27.816C27.9568 2.50198 28.0966 2.47596 28.2272 2.42346C28.3579 2.37096 28.4768 2.29301 28.5771 2.19415C28.6773 2.09529 28.757 1.97749 28.8113 1.84759C28.8656 1.7177 28.8936 1.57829 28.8936 1.43748C28.8936 1.29668 28.8656 1.15727 28.8113 1.02737C28.757 0.897476 28.6773 0.779674 28.5771 0.680814C28.4768 0.581954 28.3579 0.504008 28.2272 0.451506C28.0966 0.399004 27.9568 0.372993 27.816 0.374984H1.60766ZM1.60766 9.93748C1.46687 9.93549 1.32708 9.9615 1.19643 10.014C1.06577 10.0665 0.946859 10.1445 0.846591 10.2433C0.746323 10.3422 0.666704 10.46 0.612359 10.5899C0.558015 10.7198 0.530029 10.8592 0.530029 11C0.530029 11.1408 0.558015 11.2802 0.612359 11.4101C0.666704 11.54 0.746323 11.6578 0.846591 11.7567C0.946859 11.8555 1.06577 11.9335 1.19643 11.986C1.32708 12.0385 1.46687 12.0645 1.60766 12.0625L13.62 12.0625C13.7608 12.0645 13.9006 12.0385 14.0313 11.986C14.1619 11.9335 14.2808 11.8555 14.3811 11.7567C14.4814 11.6578 14.561 11.54 14.6153 11.4101C14.6697 11.2802 14.6977 11 14.6977 11C14.6977 11 14.6697 10.7198 14.6153 10.5899C14.561 10.46 14.4814 10.3422 14.3811 10.2433C14.2808 10.1445 14.1619 10.0665 14.0313 10.014C13.9006 9.9615 13.7608 9.93549 13.62 9.93748L1.60766 9.93748ZM1.60766 19.5C1.46687 19.498 1.32708 19.524 1.19643 19.5765C1.06577 19.629 0.946859 19.707 0.846591 19.8058C0.746323 19.9047 0.666704 20.0225 0.612359 20.1524C0.558015 20.2823 0.530029 20.4217 0.530029 20.5625C0.530029 20.7033 0.558015 20.8427 0.612359 20.9726C0.666704 21.1025 0.746323 21.2203 0.846591 21.3192C0.946859 21.418 1.06577 21.496 1.19643 21.5485C1.32708 21.601 1.46687 21.627 1.60766 21.625H27.816C27.9568 21.627 28.0966 21.601 28.2272 21.5485C28.3579 21.496 28.4768 21.418 28.5771 21.3192C28.6773 21.2203 28.757 21.1025 28.8113 20.9726C28.8656 20.8427 28.8936 20.7033 28.8936 20.5625C28.8936 20.4217 28.8656 20.2823 28.8113 20.1524C28.757 20.0225 28.6773 19.9047 28.5771 19.8058C28.4768 19.707 28.3579 19.629 28.2272 19.5765C28.0966 19.524 27.9568 19.498 27.816 19.5H1.60766Z" fill="#8E6BE1"/>
</svg>
