<?xml version="1.0" encoding="UTF-8" standalone="no"?>
<!-- Created with Inkscape (http://www.inkscape.org/) -->

<svg
   width="77.233765mm"
   height="58.243221mm"
   viewBox="0 0 77.233765 58.243221"
   version="1.1"
   id="svg5"
   xml:space="preserve"
   xmlns:inkscape="http://www.inkscape.org/namespaces/inkscape"
   xmlns:sodipodi="http://sodipodi.sourceforge.net/DTD/sodipodi-0.dtd"
   xmlns="http://www.w3.org/2000/svg"
   xmlns:svg="http://www.w3.org/2000/svg"><sodipodi:namedview
     id="namedview7"
     pagecolor="#505050"
     bordercolor="#eeeeee"
     borderopacity="1"
     inkscape:showpageshadow="0"
     inkscape:pageopacity="0"
     inkscape:pagecheckerboard="0"
     inkscape:deskcolor="#505050"
     inkscape:document-units="mm"
     showgrid="false" /><defs
     id="defs2" /><g
     inkscape:label="Calque 1"
     inkscape:groupmode="layer"
     id="layer1"
     style="display:inline"
     inkscape:export-filename="piled-books.svg"
     inkscape:export-xdpi="96"
     inkscape:export-ydpi="96"
     transform="translate(-234.60892,-16.297746)"><g
       id="g1795"
       transform="matrix(0.35277777,0,0,-0.35277777,234.83596,60.83862)"><path
         d="m 0,0 53.072,31.422 c 0,0 75.787,-8.488 75.787,-16.067 0,-7.579 -3.637,-31.831 -3.637,-31.831 0,0 -112.813,11.125 -125.222,16.476"
         style="fill:#be1f11;fill-opacity:1;fill-rule:nonzero;stroke:none"
         id="path1797" /></g><g
       id="g1799"
       transform="matrix(0.35277777,0,0,-0.35277777,237.62082,59.860403)"><path
         d="m 0,0 c 0,0 7.223,16.007 -0.976,33.381 0,0 99.362,-14.836 103.267,-15.422 3.904,-0.585 12.532,-2.344 13.665,-4.294 1.132,-1.951 1.952,-19.717 1.952,-19.717 l -1.758,-8.98 C 116.15,-15.032 3.124,-2.538 0,0"
         style="fill:#ffeee8;fill-opacity:1;fill-rule:nonzero;stroke:none"
         id="path1801" /></g><g
       id="g1803"
       transform="matrix(0.35277777,0,0,-0.35277777,235.86932,46.938859)"><path
         d="m 0,0 c 0,0 101.28,49.447 104.29,50.35 3.011,0.903 103.564,-15.353 105.671,-16.257 2.107,-0.903 3.312,-2.709 3.914,-6.322 0.603,-3.613 3.011,-14.149 0,-16.257 -3.011,-2.107 -71.208,-61.329 -90.999,-69.652 0,0 1.284,29.611 -0.823,33.224 -2.108,3.613 -3.914,3.011 -6.022,3.914 C 113.924,-20.097 0,0 0,0"
         style="fill:#be1f11;fill-opacity:1;fill-rule:nonzero;stroke:none"
         id="path1805" /></g><g
       id="g1807"
       transform="matrix(0.35277777,0,0,-0.35277777,305.06132,44.587595)"><path
         d="m 0,0 c -0.43,6.023 -4.087,14.842 -4.087,14.842 l -9.035,-6.023 c 0,0 3.012,-3.011 4.733,-10.97 1.235,-5.711 0.033,-12.196 -0.744,-15.404 3.034,2.506 5.927,4.911 8.617,7.157 C -0.168,-8.012 0.28,-3.92 0,0 m -36.583,-5.627 -10.955,-6.634 c 2.581,-1.936 4.947,-12.906 4.517,-22.371 -0.242,-5.325 -1.437,-9.355 -2.437,-11.863 3.765,2.84 7.664,5.856 11.595,8.948 0.43,3.401 1.1,9.754 0.952,15.391 -0.215,8.174 -3.672,16.529 -3.672,16.529"
         style="fill:#ff8500;fill-opacity:1;fill-rule:nonzero;stroke:none"
         id="path1809" /></g><g
       id="g1811"
       transform="matrix(0.35277777,0,0,-0.35277777,236.58969,46.809178)"><path
         d="m 0,0 c 0,0 113.187,-16.825 116.628,-17.972 3.442,-1.148 6.501,-3.824 7.648,-10.707 1.147,-6.883 0,-28.679 -3.442,-29.826 -3.441,-1.147 -31.236,2.932 -44.237,4.08 -13.002,1.147 -79.274,10.068 -80.421,11.215 -1.147,1.147 -2.677,2.294 -1.147,3.441 1.529,1.148 41.298,-5.353 46.269,-6.118 4.971,-0.764 69.977,-9.177 72.653,-8.03 2.677,1.147 4.589,3.824 4.971,8.03 0.383,4.207 1.53,17.972 -2.294,21.414 C 112.804,-21.031 0.382,-4.971 -1.53,-3.441 -3.442,-1.912 -3.442,0 0,0"
         style="fill:#ff2e1e;fill-opacity:1;fill-rule:nonzero;stroke:none"
         id="path1813" /></g><g
       id="g1815"
       transform="matrix(0.35277777,0,0,-0.35277777,309.54477,35.582801)"><path
         d="m 0,0 c -10.767,-6.32 -21.456,-12.776 -32.073,-19.345 -10.552,-6.529 -21.017,-13.194 -31.415,-19.967 -2.943,-1.916 -5.887,-3.831 -8.806,-5.783 -2.86,-1.912 -5.807,-3.756 -8.496,-5.903 -0.107,-0.085 0.029,-0.244 0.141,-0.183 2.73,1.495 5.307,3.286 7.92,4.977 2.62,1.696 5.231,3.404 7.851,5.1 5.174,3.351 10.365,6.675 15.586,9.951 10.542,6.617 21.105,13.195 31.763,19.626 5.979,3.608 11.992,7.161 18.015,10.696 C 1.02,-0.518 0.536,0.314 0,0"
         style="fill:#ff2e1e;fill-opacity:1;fill-rule:nonzero;stroke:none"
         id="path1817" /></g><g
       id="g1819"
       transform="matrix(0.35277777,0,0,-0.35277777,275.1138,62.830756)"><path
         d="m 0,0 c -12.847,1.644 -25.721,3.085 -38.583,4.604 -12.859,1.518 -25.714,3.086 -38.583,4.525 -7.296,0.815 -14.594,1.589 -21.911,2.198 -0.208,0.017 -0.26,-0.338 -0.05,-0.369 C -86.29,9.012 -73.389,7.539 -60.494,6.037 -47.633,4.539 -34.772,3.04 -21.911,1.542 -14.609,0.691 -7.31,-0.183 0,-0.962 0.62,-1.028 0.603,-0.077 0,0"
         style="fill:#ffd7cb;fill-opacity:1;fill-rule:nonzero;stroke:none"
         id="path1821" /></g><g
       id="g1823"
       transform="matrix(0.35277777,0,0,-0.35277777,276.60122,61.390541)"><path
         d="m 0,0 c -26.187,3.132 -52.377,6.221 -78.567,9.323 l -10.986,1.301 c -3.717,0.44 -7.478,0.999 -11.223,1.025 -0.176,0.001 -0.219,-0.269 -0.042,-0.31 3.141,-0.735 6.391,-1.068 9.594,-1.451 3.264,-0.389 6.527,-0.78 9.791,-1.169 6.607,-0.79 13.214,-1.575 19.821,-2.37 13.053,-1.57 26.107,-3.141 39.164,-4.685 C -14.965,0.778 -7.483,-0.107 0,-0.992 0.633,-1.067 0.627,-0.075 0,0"
         style="fill:#ffd7cb;fill-opacity:1;fill-rule:nonzero;stroke:none"
         id="path1825" /></g><g
       id="g1827"
       transform="matrix(0.35277777,0,0,-0.35277777,274.23545,57.119637)"><path
         d="m 0,0 c -24.784,3.348 -49.568,6.689 -74.353,10.028 -3.495,0.471 -6.991,0.941 -10.486,1.412 -3.366,0.454 -6.757,1.026 -10.151,1.188 -0.395,0.019 -0.484,-0.607 -0.094,-0.694 3.114,-0.698 6.324,-1.033 9.484,-1.46 3.019,-0.407 6.037,-0.814 9.056,-1.222 6.196,-0.836 12.392,-1.672 18.587,-2.509 12.234,-1.651 24.467,-3.303 36.7,-4.95 L -0.284,-1.029 C 0.388,-1.12 0.679,-0.092 0,0"
         style="fill:#ffd7cb;fill-opacity:1;fill-rule:nonzero;stroke:none"
         id="path1829" /></g><g
       id="g1831"
       transform="matrix(0.35277777,0,0,-0.35277777,269.2101,54.625216)"><path
         d="M 0,0 C -19.416,2.029 -38.681,5.173 -58.002,7.87 -58.142,7.889 -58.208,7.684 -58.063,7.652 -38.957,3.475 -19.449,1.183 0,-0.767 0.491,-0.816 0.486,-0.051 0,0"
         style="fill:#ffd7cb;fill-opacity:1;fill-rule:nonzero;stroke:none"
         id="path1833" /></g><g
       id="g1835"
       transform="matrix(0.35277777,0,0,-0.35277777,267.52975,58.68149)"><path
         d="m 0,0 c 0,0 -15.677,-20.519 -10.835,-44.956 l 9.913,10.835 13.602,-7.607 c 0,0 -10.836,22.824 1.844,40.114 z"
         style="fill:#ffab00;fill-opacity:1;fill-rule:nonzero;stroke:none"
         id="path1837" /></g><g
       id="g1839"
       transform="matrix(0.35277777,0,0,-0.35277777,276.43171,59.49676)"><path
         d="m 0,0 c -10.183,1.11 -20.343,2.485 -30.52,3.663 -10.173,1.177 -20.345,2.363 -30.52,3.532 -2.781,0.32 -5.563,0.636 -8.345,0.953 -2.901,0.332 -5.898,0.9 -8.822,0.788 -0.266,-0.01 -0.332,-0.398 -0.064,-0.473 2.335,-0.642 4.817,-0.782 7.217,-1.062 2.544,-0.297 5.087,-0.593 7.63,-0.89 5.166,-0.602 10.332,-1.193 15.499,-1.787 C -37.752,3.553 -27.579,2.382 -17.406,1.212 -11.609,0.545 -5.792,0.044 0,-0.662 0.42,-0.712 0.421,-0.046 0,0"
         style="fill:#ffd7cb;fill-opacity:1;fill-rule:nonzero;stroke:none"
         id="path1841" /></g><g
       id="g1843"
       transform="matrix(0.35277777,0,0,-0.35277777,275.36441,51.052671)"><path
         d="m 0,0 c 0,0 94.243,46.732 95.9,48.753 1.657,2.02 0.127,3.031 -0.497,3.536 -0.625,0.505 -81.198,27.532 -81.198,27.532 L -88.596,60.119 c 0,0 -5.599,-0.466 -7.072,-7.072 -1.474,-6.607 2.95,-13.388 3.728,-16.418 0.777,-3.03 12.942,-9.093 12.942,-9.093 z"
         style="fill:#008383;fill-opacity:1;fill-rule:nonzero;stroke:none"
         id="path1845" /></g><g
       id="g1847"
       transform="matrix(0.35277777,0,0,-0.35277777,275.18958,50.991676)"><path
         d="m 0,0 0.496,-0.172 c 0,0 94.242,46.732 95.9,48.752 0.891,1.088 0.857,1.881 0.541,2.462 C 82.264,41.813 0.996,2.077 0.996,2.077 Z"
         style="fill:#006161;fill-opacity:1;fill-rule:nonzero;stroke:none"
         id="path1849" /></g><g
       id="g1851"
       transform="matrix(0.35277777,0,0,-0.35277777,275.94611,49.582999)"><path
         d="m 0,0 c 1.134,0.474 91.03,47.151 91.03,47.151 0,0 -5.378,7.683 -0.192,15.943 L -2.132,25.638 -10.007,10.847 Z"
         style="fill:#ffaca0;fill-opacity:1;fill-rule:nonzero;stroke:none"
         id="path1853" /></g><g
       id="g1855"
       transform="matrix(0.35277777,0,0,-0.35277777,244.61436,29.99279)"><path
         d="m 0,0 c 0,0 -6.051,-4.271 -5.695,-10.679 0.356,-6.407 3.737,-13.349 7.475,-15.307 3.738,-1.957 87.034,-29.545 87.034,-29.545 0,0 -8.187,11.569 0.712,23.85 z"
         style="fill:#ffeee8;fill-opacity:1;fill-rule:nonzero;stroke:none"
         id="path1857" /></g><g
       id="g1859"
       transform="matrix(0.35277777,0,0,-0.35277777,242.92988,29.737873)"><path
         d="m 0,0 c 0,0 110.445,38.098 111.903,38.098 1.459,0 73.864,-26.82 74.593,-27.549 0.73,-0.729 1.216,-2.431 0.486,-3.404 C 186.253,6.173 95.94,-33.423 95.94,-33.423 Z"
         style="fill:#008383;fill-opacity:1;fill-rule:nonzero;stroke:none"
         id="path1861" /></g><g
       id="g1863"
       transform="matrix(0.35277777,0,0,-0.35277777,276.53369,41.444627)"><path
         d="m 0,0 0.685,-0.238 c 0,0 90.313,39.595 91.043,40.568 0.577,0.77 0.388,1.989 -0.075,2.829 C 75.418,35.254 1.185,2.261 1.185,2.261 Z"
         style="fill:#006161;fill-opacity:1;fill-rule:nonzero;stroke:none"
         id="path1865" /></g><g
       id="g1867"
       transform="matrix(0.35277777,0,0,-0.35277777,275.36441,51.052671)"><path
         d="m 0,0 c 0,0 -81.24,25.997 -85.99,29.247 -4.749,3.249 -10.998,8.999 -11.248,18.747 -0.25,9.749 3.5,12.249 7.749,13.249 4.249,1 93.239,-30.496 93.989,-31.746 0.75,-1.25 0.75,-2.75 -0.5,-2.5 -1.25,0.25 -89.99,30.996 -92.239,31.246 -2.25,0.25 -6.999,-2.5 -6.499,-9.749 0.5,-7.249 4.499,-13.748 9.748,-16.747 C -79.74,28.747 -0.5,3 0.5,2.25 1.5,1.5 1.75,0.25 0,0"
         style="fill:#00a2a2;fill-opacity:1;fill-rule:nonzero;stroke:none"
         id="path1869" /></g><g
       id="g1871"
       transform="matrix(0.35277777,0,0,-0.35277777,306.84517,32.502875)"><path
         d="m 0,0 c -22.172,-10.295 -44.097,-21.13 -65.779,-32.418 -6.158,-3.206 -12.567,-6.234 -18.373,-10.052 -0.177,-0.116 -0.025,-0.356 0.162,-0.277 5.678,2.429 11.091,5.578 16.561,8.439 5.345,2.795 10.706,5.561 16.081,8.298 10.892,5.547 21.845,10.973 32.857,16.278 6.292,3.031 12.605,6.019 18.93,8.981 C 0.946,-0.514 0.504,0.234 0,0"
         style="fill:#ffd7cb;fill-opacity:1;fill-rule:nonzero;stroke:none"
         id="path1873" /></g><g
       id="g1875"
       transform="matrix(0.35277777,0,0,-0.35277777,303.98111,32.353015)"><path
         d="m 0,0 c -2.386,-0.549 -4.6,-1.862 -6.792,-2.925 l -6.809,-3.303 -13.838,-6.712 c -9.227,-4.475 -18.453,-8.949 -27.679,-13.423 -5.271,-2.557 -10.465,-5.225 -15.633,-7.982 -0.089,-0.047 -0.011,-0.17 0.076,-0.132 18.787,8.222 37.109,17.554 55.569,26.484 2.637,1.276 5.274,2.552 7.912,3.827 2.456,1.188 5.196,2.212 7.335,3.924 C 0.262,-0.146 0.128,0.03 0,0"
         style="fill:#ffd7cb;fill-opacity:1;fill-rule:nonzero;stroke:none"
         id="path1877" /></g><g
       id="g1879"
       transform="matrix(0.35277777,0,0,-0.35277777,293.48837,35.594866)"><path
         d="m 0,0 c -1.859,-0.473 -3.684,-1.623 -5.42,-2.438 -1.763,-0.828 -3.526,-1.655 -5.288,-2.483 -3.672,-1.724 -7.345,-3.448 -11.017,-5.171 -7.329,-3.441 -14.783,-6.715 -21.943,-10.497 -0.247,-0.131 -0.073,-0.571 0.194,-0.46 7.368,3.039 14.537,6.61 21.753,9.989 l 11.022,5.163 c 1.763,0.826 3.527,1.651 5.29,2.478 1.844,0.863 4.039,1.571 5.685,2.764 C 0.593,-0.426 0.416,0.106 0,0"
         style="fill:#ffd7cb;fill-opacity:1;fill-rule:nonzero;stroke:none"
         id="path1881" /></g><g
       id="g1883"
       transform="matrix(0.35277777,0,0,-0.35277777,301.82514,31.858138)"><path
         d="m 0,0 c -0.456,-0.016 -0.456,0.072 -0.864,-0.075 -0.305,-0.11 -0.594,-0.248 -0.884,-0.391 -0.679,-0.335 -1.35,-0.686 -2.031,-1.017 -1.278,-0.621 -2.572,-1.204 -3.87,-1.778 -1.348,-0.595 -2.708,-1.159 -4.082,-1.69 -0.708,-0.274 -1.418,-0.544 -2.118,-0.838 -0.48,-0.202 -0.998,-0.359 -1.291,-0.808 -0.024,-0.035 0.001,-0.077 0.036,-0.089 0.564,-0.202 1.184,0.058 1.735,0.221 0.726,0.216 1.437,0.467 2.147,0.731 1.325,0.493 2.637,1.017 3.939,1.567 1.35,0.572 2.679,1.196 3.995,1.843 0.679,0.333 1.363,0.664 2.026,1.026 0.307,0.167 0.716,0.349 0.962,0.603 0.176,0.182 0.213,0.343 0.372,0.569 C 0.109,-0.075 0.06,0.002 0,0"
         style="fill:#ffd7cb;fill-opacity:1;fill-rule:nonzero;stroke:none"
         id="path1885" /></g><g
       id="g1887"
       transform="matrix(0.35277777,0,0,-0.35277777,272.41078,45.676232)"><path
         d="m 0,0 c -4.93,1.998 -10.026,3.654 -15.047,5.41 -5.03,1.759 -10.075,3.476 -15.13,5.162 -9.957,3.319 -19.957,6.53 -30.025,9.499 -5.766,1.701 -11.578,3.684 -17.502,4.731 -0.166,0.03 -0.223,-0.189 -0.068,-0.25 4.939,-1.973 10.161,-3.278 15.245,-4.84 5.093,-1.566 10.189,-3.124 15.27,-4.731 10.009,-3.165 19.986,-6.428 29.915,-9.836 5.71,-1.96 11.364,-4.14 17.111,-5.984 C 0.314,-1.014 0.505,-0.205 0,0"
         style="fill:#ffd7cb;fill-opacity:1;fill-rule:nonzero;stroke:none"
         id="path1889" /></g><g
       id="g1891"
       transform="matrix(0.35277777,0,0,-0.35277777,250.93543,36.589453)"><path
         d="m 0,0 12.855,-4.382 c 0,0 -9.933,-12.563 -5.697,-26.733 l -8.326,8.327 -5.259,-4.675 c 0,0 -5.99,16.069 6.427,27.463"
         style="fill:#6f3584;fill-opacity:1;fill-rule:nonzero;stroke:none"
         id="path1893" /></g><g
       id="g1895"
       transform="matrix(0.35277777,0,0,-0.35277777,273.11856,43.556814)"><path
         d="m 0,0 c -2.483,1.038 -5.262,1.569 -7.851,2.304 -2.624,0.746 -5.247,1.491 -7.863,2.261 -5.232,1.541 -10.445,3.151 -15.635,4.829 -10.303,3.331 -20.524,6.931 -30.657,10.75 -5.751,2.167 -11.483,4.386 -17.231,6.56 -0.208,0.079 -0.358,-0.27 -0.153,-0.363 19.869,-8.994 40.725,-16.008 61.619,-22.199 2.989,-0.886 5.983,-1.751 8.985,-2.589 2.835,-0.792 5.777,-1.834 8.699,-2.198 C 0.314,-0.695 0.306,-0.128 0,0"
         style="fill:#ffd7cb;fill-opacity:1;fill-rule:nonzero;stroke:none"
         id="path1897" /></g><g
       id="g1899"
       transform="matrix(0.35277777,0,0,-0.35277777,272.99745,41.609833)"><path
         d="m 0,0 c -3.958,1.205 -7.997,2.125 -11.988,3.211 -4.067,1.107 -8.108,2.311 -12.118,3.61 -3.937,1.277 -7.843,2.647 -11.717,4.104 -3.926,1.477 -7.82,3.111 -11.835,4.332 -0.066,0.02 -0.107,-0.077 -0.047,-0.112 3.608,-2.061 7.534,-3.591 11.412,-5.066 3.867,-1.471 7.779,-2.83 11.715,-4.107 7.95,-2.58 16.166,-5.214 24.456,-6.413 C 0.162,-0.482 0.29,-0.088 0,0"
         style="fill:#ffd7cb;fill-opacity:1;fill-rule:nonzero;stroke:none"
         id="path1901" /></g></g></svg>
