<svg width="31" height="36" viewBox="0 0 31 36" fill="none" xmlns="http://www.w3.org/2000/svg">
<path d="M15.0333 0C11.7096 0 0 1.36667 0 15.0333V20.5V21.8667C0 23.9394 0.907737 25.4153 1.83379 26.2256C2.39844 26.7197 2.63478 26.7274 3.01361 26.8769C3.50692 28.1517 6.64857 35.4301 14.8758 35.5253C14.9281 35.531 14.9807 35.5337 15.0333 35.5333C15.0877 35.5339 15.1421 35.5312 15.1962 35.5253C23.4193 35.427 26.5599 28.1515 27.0531 26.8769C27.4319 26.7274 27.6682 26.7197 28.2329 26.2256C29.1589 25.4153 30.0667 23.9394 30.0667 21.8667V19.1333V15.0333C30.0667 9.56667 27.3333 2.73333 21.8667 2.73333C21.8667 2.73333 20.5 0 15.0333 0ZM21.8667 8.2C21.8667 8.2 25.9667 11.972 25.9667 20.5H27.3333V21.8667C27.3333 23.2106 26.8744 23.7847 26.4338 24.1702C25.9932 24.5558 25.6357 24.64 25.6357 24.64L24.907 24.8215L24.6694 25.5342C24.6694 25.5342 22.3222 32.8 15.0333 32.8C7.74444 32.8 5.39727 25.5342 5.39727 25.5342L5.1597 24.8215L4.43099 24.64C4.43099 24.64 4.07349 24.5558 3.63288 24.1702C3.19226 23.7847 2.73333 23.2106 2.73333 21.8667V20.5H4.1C4.1 10.9333 17.7667 17.7667 21.8667 8.2ZM8.88333 19.1333C8.33964 19.1333 7.81821 19.3493 7.43376 19.7338C7.04931 20.1182 6.83333 20.6396 6.83333 21.1833C6.83333 21.727 7.04931 22.2485 7.43376 22.6329C7.81821 23.0174 8.33964 23.2333 8.88333 23.2333C9.42703 23.2333 9.94845 23.0174 10.3329 22.6329C10.7174 22.2485 10.9333 21.727 10.9333 21.1833C10.9333 20.6396 10.7174 20.1182 10.3329 19.7338C9.94845 19.3493 9.42703 19.1333 8.88333 19.1333ZM21.1833 19.1333C20.6396 19.1333 20.1182 19.3493 19.7338 19.7338C19.3493 20.1182 19.1333 20.6396 19.1333 21.1833C19.1333 21.727 19.3493 22.2485 19.7338 22.6329C20.1182 23.0174 20.6396 23.2333 21.1833 23.2333C21.727 23.2333 22.2485 23.0174 22.6329 22.6329C23.0174 22.2485 23.2333 21.727 23.2333 21.1833C23.2333 20.6396 23.0174 20.1182 22.6329 19.7338C22.2485 19.3493 21.727 19.1333 21.1833 19.1333Z" fill="#8E6BE1"/>
</svg>
