<svg width="67" height="64" viewBox="0 0 67 64" fill="none" xmlns="http://www.w3.org/2000/svg">
<rect width="67" height="64" rx="18" fill="#FFC001"/>
<path d="M16 12.531C16 8.60414 17.3278 8 18.3786 8C19.7379 8 21.2005 8.62932 21.7767 9.13279L33.5 16.5766L45.2233 9.13279C45.7995 8.62932 47.2621 8 48.6214 8C49.6722 8 51 8.60414 51 12.531V33.2982C51 35.5636 48.7573 38.2823 45.2233 38.5843C41.7707 38.8795 35.9828 39.0784 33.5 38.9701C31.0172 39.0784 25.2293 38.8795 21.7767 38.5843C18.2427 38.2823 16 34.8085 16 33.2982V12.531Z" fill="#653FC0"/>
<path d="M33.6699 38.9619C31.2913 39.0878 25.3107 38.8864 21.7767 38.5843C18.2427 38.2823 16 34.8085 16 33.2982V12.531C16 8.60414 17.3278 8 18.3786 8C19.7379 8 21.2005 8.62932 21.7767 9.13279L33.6699 16.6844M33.3301 38.9619C35.7087 39.0878 41.6893 38.8864 45.2233 38.5843C48.7573 38.2823 51 35.5636 51 33.2982V12.531C51 8.60414 49.6722 8 48.6214 8C47.2621 8 45.7995 8.62932 45.2233 9.13279L33.3301 16.6844" stroke="#653FC0"/>
<path d="M8 18C8 12.8 9.95383 12 11.5 12C13.5 12 15.6521 12.8334 16.5 13.5001L33.75 23.3571L51 13.5001C51.8479 12.8334 54 12 56 12C57.5462 12 59.5 12.8 59.5 18V45.5001C59.5 48.5 56.2 52.1001 51 52.5001C45.9197 52.8908 37.4032 53.1543 33.75 53.0108C30.0968 53.1543 21.5803 52.8908 16.5 52.5001C11.3 52.1001 8 47.5 8 45.5001V18Z" fill="#8E6BE1"/>
<path d="M34 53C30.5 53.1667 21.7 52.9001 16.5 52.5001C11.3 52.1001 8 47.5 8 45.5001V18C8 12.8 9.95383 12 11.5 12C13.5 12 15.6521 12.8334 16.5 13.5001L34 23.5M33.5 53C37 53.1667 45.8 52.9001 51 52.5001C56.2 52.1001 59.5 48.5 59.5 45.5001V18C59.5 12.8 57.5462 12 56 12C54 12 51.8479 12.8334 51 13.5001L33.5 23.5" stroke="#8E6BE1"/>
<path d="M32.1653 48.735C32.5606 49.334 33.4394 49.334 33.8347 48.735L38.905 41.0507C39.3437 40.3859 38.8668 39.5 38.0703 39.5H27.9297C27.1331 39.5 26.6563 40.3859 27.095 41.0507L32.1653 48.735Z" fill="#FFC001"/>
<circle cx="43.5" cy="34.5" r="11.5" fill="white"/>
<circle cx="44" cy="35" r="5" fill="#653FC0"/>
<mask id="mask0_109_360" style="mask-type:alpha" maskUnits="userSpaceOnUse" x="39" y="30" width="10" height="10">
<circle cx="44" cy="35" r="5" fill="#653FC0"/>
</mask>
<g mask="url(#mask0_109_360)">
<rect x="37" y="29" width="7" height="12" fill="#FFC001"/>
</g>
<circle cx="22.5" cy="34.5" r="11.5" fill="white"/>
<circle cx="23" cy="35" r="5" fill="#653FC0"/>
<mask id="mask1_109_360" style="mask-type:alpha" maskUnits="userSpaceOnUse" x="18" y="30" width="10" height="10">
<circle cx="23" cy="35" r="5" fill="#653FC0"/>
</mask>
<g mask="url(#mask1_109_360)">
<rect x="16" y="29" width="7" height="12" fill="#FFC001"/>
</g>
</svg>
